<svg width="16" height="16" viewBox="0 0 16 16" fill="none" xmlns="http://www.w3.org/2000/svg">
<path d="M7 3H2.33333C1.97971 3 1.64057 3.14048 1.39052 3.39052C1.14048 3.64057 1 3.97971 1 4.33333V13.6667C1 14.0203 1.14048 14.3594 1.39052 14.6095C1.64057 14.8595 1.97971 15 2.33333 15H11.6667C12.0203 15 12.3594 14.8595 12.6095 14.6095C12.8595 14.3594 13 14.0203 13 13.6667V9" stroke="#2C4468" stroke-linecap="round" stroke-linejoin="round"/>
<path d="M12.692 1.39599C12.9456 1.14244 13.2894 1 13.648 1C14.0066 1 14.3505 1.14244 14.604 1.39599C14.8576 1.64954 15 1.99342 15 2.35199C15 2.71056 14.8576 3.05444 14.604 3.30799L8.54934 9.36267L6 10L6.63733 7.45066L12.692 1.39599Z" stroke="#2C4468" stroke-linecap="round" stroke-linejoin="round"/>
</svg>
