<svg width="32" height="32" viewBox="0 0 32 32" fill="none" xmlns="http://www.w3.org/2000/svg">
<circle cx="16" cy="16" r="16" fill="#F7F8FC"/>
<path d="M24 25V23C24 21.9391 23.5786 20.9217 22.8284 20.1716C22.0783 19.4214 21.0609 19 20 19H13C11.9391 19 10.9217 19.4214 10.1716 20.1716C9.42143 20.9217 9 21.9391 9 23V25" stroke="#FF8948" stroke-width="1.4" stroke-linecap="round" stroke-linejoin="round"/>
<path d="M16.5 15C18.7091 15 20.5 13.2091 20.5 11C20.5 8.79086 18.7091 7 16.5 7C14.2909 7 12.5 8.79086 12.5 11C12.5 13.2091 14.2909 15 16.5 15Z" stroke="#FF8948" stroke-width="1.4" stroke-linecap="round" stroke-linejoin="round"/>
<path d="M24 5L26 7L30 3" stroke="#FF8948" stroke-width="1.4" stroke-linecap="round" stroke-linejoin="round"/>
</svg>
