<svg width="33" height="32" viewBox="0 0 33 32" fill="none" xmlns="http://www.w3.org/2000/svg">
<circle cx="16" cy="15.9999" r="16" fill="#F7F8FC"/>
<path d="M28.5 2V9" stroke="#1BBC9D" stroke-width="1.4" stroke-linecap="round" stroke-linejoin="round"/>
<path d="M25 5.5H32" stroke="#1BBC9D" stroke-width="1.4" stroke-linecap="round" stroke-linejoin="round"/>
<path d="M20.0909 23.7273V22.0909C20.0909 21.2229 19.7461 20.3905 19.1323 19.7767C18.5186 19.163 17.6862 18.8182 16.8182 18.8182H10.2727C9.40475 18.8182 8.57232 19.163 7.95856 19.7767C7.3448 20.3905 7 21.2229 7 22.0909V23.7273" stroke="#1BBC9D" stroke-width="1.4" stroke-linecap="round" stroke-linejoin="round"/>
<path d="M13.5454 15.5455C15.3529 15.5455 16.8182 14.0802 16.8182 12.2727C16.8182 10.4652 15.3529 9 13.5454 9C11.738 9 10.2727 10.4652 10.2727 12.2727C10.2727 14.0802 11.738 15.5455 13.5454 15.5455Z" stroke="#1BBC9D" stroke-width="1.4" stroke-linecap="round" stroke-linejoin="round"/>
<path d="M25 23.7273V22.0909C24.9995 21.3658 24.7581 20.6614 24.3139 20.0883C23.8696 19.5152 23.2476 19.1058 22.5455 18.9245" stroke="#1BBC9D" stroke-width="1.4" stroke-linecap="round" stroke-linejoin="round"/>
<path d="M19.2727 9.10637C19.9767 9.28662 20.6006 9.69603 21.0462 10.2701C21.4918 10.8441 21.7337 11.5501 21.7337 12.2768C21.7337 13.0035 21.4918 13.7095 21.0462 14.2836C20.6006 14.8576 19.9767 15.267 19.2727 15.4473" stroke="#1BBC9D" stroke-width="1.4" stroke-linecap="round" stroke-linejoin="round"/>
</svg>
