<svg width="32" height="32" viewBox="0 0 32 32" fill="none" xmlns="http://www.w3.org/2000/svg">
<circle cx="16" cy="16" r="16" fill="#F7F8FC"/>
<path d="M14.4055 6.409L5.98354 20.4687C5.8099 20.7695 5.71802 21.1104 5.71705 21.4576C5.71608 21.8049 5.80604 22.1463 5.978 22.448C6.14995 22.7496 6.3979 23.001 6.69717 23.1771C6.99645 23.3532 7.33661 23.4479 7.68383 23.4517H24.5277C24.8749 23.4479 25.2151 23.3532 25.5143 23.1771C25.8136 23.001 26.0616 22.7496 26.2335 22.448C26.4055 22.1463 26.4954 21.8049 26.4945 21.4576C26.4935 21.1104 26.4016 20.7695 26.228 20.4687L17.8061 6.409C17.6288 6.11678 17.3792 5.87517 17.0814 5.70749C16.7836 5.53981 16.4475 5.45172 16.1058 5.45172C15.764 5.45172 15.428 5.53981 15.1301 5.70749C14.8323 5.87517 14.5827 6.11678 14.4055 6.409V6.409Z" stroke="#F1556C" stroke-width="1.4" stroke-linecap="round" stroke-linejoin="round"/>
<path d="M16.1057 11.5198V15.4971" stroke="#F1556C" stroke-width="1.4" stroke-linecap="round" stroke-linejoin="round"/>
<path d="M16.1057 19.4744H16.1157" stroke="#F1556C" stroke-width="1.4" stroke-linecap="round" stroke-linejoin="round"/>
</svg>
