<svg width="16" height="26" viewBox="0 0 16 26" fill="none" xmlns="http://www.w3.org/2000/svg">
<path d="M8 19.7949C11.866 19.7949 15 16.6609 15 12.7949C15 8.92893 11.866 5.79492 8 5.79492C4.13401 5.79492 1 8.92893 1 12.7949C1 16.6609 4.13401 19.7949 8 19.7949Z" stroke="black" stroke-width="1.5" stroke-linecap="round" stroke-linejoin="round"/>
<path d="M8 9.79492V12.7949L9.5 14.2949" stroke="black" stroke-width="1.5" stroke-linecap="round" stroke-linejoin="round"/>
<path d="M3.41815 7.54171L3.76621 3.53763C3.81087 3.01812 4.03863 2.53492 4.40478 2.18288C4.77093 1.83084 5.24903 1.6354 5.74522 1.6349H10.0712C10.5691 1.63278 11.0496 1.82706 11.4179 2.17935C11.7862 2.53164 12.0153 3.01632 12.0601 3.53763L12.4082 7.54171M12.3883 18.7281L12.0402 22.7321C11.9954 23.2535 11.7663 23.7381 11.398 24.0904C11.0298 24.4427 10.5492 24.637 10.0513 24.6349H5.74522C5.24731 24.637 4.76676 24.4427 4.3985 24.0904C4.03025 23.7381 3.80108 23.2535 3.75627 22.7321L3.4082 18.7281H12.3883Z" stroke="black" stroke-width="1.5" stroke-linecap="round" stroke-linejoin="round"/>
</svg>
